:SAMPLES-PER-SECOND 30
:FULLY-SPECIFIED
:DEGREES
590
root  71.5356 38.3623 0.689746 11.9145 76.1537 17.1954
RightUpLeg  -21.803 3.58889 -10.1709
RightLeg  53.8549 -0.316029 -0.834873
RightFoot  -3.75539 -0.608756 8.77668
RightToes  -6.40286e-010 0 -3.6325e-017
Spine  8.86333 0.76494 -2.15392
Spine1  5.34136 1.12208 -3.80439
HEad  -19.2483 8.0661 -6.02332
LeftShoulder1  -0.521934 4.87997 -31.7838
LeftArm  -0.765332 -3.08963 -40.8085
LeftForeArm  24.2296 -31.9131 -5.64334
LeftHand  -0.0137349 5.91109 3.46059
RightShoulder  -0.910492 -6.13115 28.0352
RightArm  17.6518 -12.8848 45.7984
RightForeArm  16.602 14.4235 5.84522
RightHand  0.0854571 4.24806 0.894905
LeftUpLeg  -9.01898 6.37775 -4.24212
LeftLeg  17.6643 8.62619 1.33928
LeftFoot  -2.25727 -0.465416 6.02484
LeftToes  1.32783e-010 1.73515e-011 1.59258e-011
591
root  72.1363 38.4436 0.788949 13.5232 76.2921 18.359
RightUpLeg  -22.3042 3.1975 -10.7068
RightLeg  46.589 -0.303069 -0.702594
RightFoot  -4.0763 -0.597678 8.95684
RightToes  -6.40286e-010 0 -3.6325e-017
Spine  7.32524 0.536415 -1.80111
Spine1  7.10148 1.16194 -4.19358
HEad  -19.781 7.13477 -5.78523
LeftShoulder1  -0.48638 4.78075 -31.9324
LeftArm  -1.45166 -4.14526 -40.5922
LeftForeArm  23.3784 -33.1858 -6.01216
LeftHand  -0.0390222 4.95841 4.52124
RightShoulder  -1.04558 -6.44839 28.9594
RightArm  15.5518 -11.7255 45.669
RightForeArm  19.3227 14.9301 5.1611
RightHand  0.158902 1.05569 2.76817
LeftUpLeg  -8.05224 5.66593 -4.60845
LeftLeg  16.7972 9.08961 1.43644
LeftFoot  -3.00479 -0.389014 5.57124
LeftToes  1.32783e-010 1.73515e-011 1.59258e-011
592
root  72.7345 38.4915 0.634447 13.1074 75.3353 17.4393
RightUpLeg  -22.3868 3.08767 -11.3646
RightLeg  38.5423 0.995045 0.609014
RightFoot  -4.16315 -0.586456 8.88045
RightToes  -6.40286e-010 0 -3.6325e-017
Spine  7.00351 0.263174 1.37447
Spine1  7.12775 1.87404 -7.36755
HEad  -20.2917 6.90583 -6.10982
LeftShoulder1  -0.584326 5.0267 -32.2257
LeftArm  -0.555187 -4.05162 -40.1431
LeftForeArm  22.4818 -35.0208 -6.53701
LeftHand  -0.0420057 4.92622 5.64231
RightShoulder  -0.876654 -6.03301 28.0864
RightArm  12.5073 -10.0111 47.2586
RightForeArm  18.2874 11.6255 5.72365
RightHand  0.0962878 4.45093 0.838837
LeftUpLeg  -7.45989 4.51447 -5.405
LeftLeg  16.491 11.2159 2.59612
LeftFoot  -3.94216 -0.280997 4.71816
LeftToes  1.32783e-010 1.73515e-011 1.59258e-011
593
root  73.261 38.5456 0.729077 15.1112 75.3729 18.6346
RightUpLeg  -21.9305 2.47318 -11.6123
RightLeg  30.2306 2.40813 1.26067
RightFoot  -3.68054 -0.643793 9.21429
RightToes  -6.40286e-010 0 -3.6325e-017
Spine  6.06018 0.317607 2.28788
Spine1  7.61284 2.29873 -8.20361
HEad  -21.1955 6.11716 -5.94512
LeftShoulder1  -0.572898 4.99786 -32.1968
LeftArm  0.403782 -3.9218 -40.2354
LeftForeArm  22.1055 -36.1813 -6.87409
LeftHand  -0.0175742 5.46007 7.19156
RightShoulder  -0.904699 -6.09801 28.2967
RightArm  11.5183 -8.92441 47.5997
RightForeArm  16.3621 11.0122 5.69713
RightHand  -0.00513938 5.03781 -0.376795
LeftUpLeg  -7.07688 4.01187 -5.87464
LeftLeg  15.7272 11.5235 2.67755
LeftFoot  -4.5324 -0.225902 4.2532
LeftToes  1.32783e-010 1.73515e-011 1.59258e-011
594
root  73.8708 38.6146 0.785172 16.941 75.7663 19.3898
RightUpLeg  -20.7368 0.93109 -11.576
RightLeg  21.6348 4.86722 1.97121
RightFoot  -2.95278 -0.740524 9.81537
RightToes  -6.40286e-010 0 -3.6325e-017
Spine  4.28297 0.220557 4.65968
Spine1  8.66034 2.83959 -10.0962
HEad  -21.4829 5.76747 -5.79803
LeftShoulder1  -0.573023 4.98772 -32.4665
LeftArm  0.960054 -3.03143 -40.5736
LeftForeArm  22.8519 -37.003 -7.05479
LeftHand  -0.0647008 4.56273 6.49265
RightShoulder  -0.913714 -6.12039 28.346
RightArm  12.0343 -8.79117 47.6022
RightForeArm  15.3864 13.0069 5.33317
RightHand  0.0152016 4.53553 -0.0929147
LeftUpLeg  -6.82752 3.19196 -6.39716
LeftLeg  14.848 11.7977 3.06117
LeftFoot  -5.00663 -0.182186 3.84764
LeftToes  1.32783e-010 1.73515e-011 1.59258e-011
595
root  74.3981 38.6364 1.01078 19.8328 76.3701 21.3737
RightUpLeg  -19.0294 -1.17131 -11.0669
RightLeg  13.9544 7.87771 1.83026
RightFoot  -1.78741 -0.858068 9.98054
RightToes  -6.40286e-010 0 -3.6325e-017
Spine  3.04683 0.529746 5.78768
Spine1  9.12879 3.44513 -10.9838
HEad  -21.3115 4.59279 -5.16779
LeftShoulder1  -0.537829 4.89823 -32.4243
LeftArm  3.28851 -2.63101 -41.0447
LeftForeArm  22.2294 -36.23 -6.8814
LeftHand  -0.084408 4.09631 5.96843
RightShoulder  -0.906567 -6.10671 28.2521
RightArm  12.5372 -8.91218 47.8257
RightForeArm  17.1924 15.2902 4.73096
RightHand  0.0945846 3.75239 0.932269
LeftUpLeg  -6.67754 3.03663 -6.49131
LeftLeg  14.3327 11.1849 2.6986
LeftFoot  -5.65664 -0.157192 3.82106
LeftToes  1.32783e-010 1.73515e-011 1.59258e-011
